<?xml version="1.0" encoding="UTF-8"?>
<svg fill="#1A365D" width="100pt" height="100pt" version="1.1" viewBox="0 0 100 100" xmlns="http://www.w3.org/2000/svg">
 <g>
  <path d="m64.969-107.85v74c0 2.7695-2.2305 4.9961-4.9961 4.9961h-59.141c-2.7695 0-4.9961-2.2305-4.9961-4.9961v-81.633c0-2.7695 2.2305-5 4.9961-5h51.516zm-13.305 63.625v-31.652c0-3.0312-2.4648-5.4961-5.4961-5.4961h-31.652c-3.0312 0-5.4961 2.4648-5.4961 5.4961v31.648c0 3.0312 2.4688 5.4961 5.4961 5.4961h31.652c3.0273 0.003906 5.4961-2.4609 5.4961-5.4922z"/>
  <path d="m50.664-49.484v5.2578c0 2.4805-2.0195 4.4961-4.4961 4.4961h-15.59v-12.754h5.4414l3 2.9961z"/>
  <path d="m50.664-59.48v9.5156h-11.449l-2.7461-2.75v-6.7656z"/>
  <path d="m50.664-69.477v9.5156h-14.195v-6.7656l2.7461-2.75z"/>
  <path d="m50.664-75.879v5.9258h-11.645l-3.0312 3.0312 0.085938 0.089844h-0.085938v13.871h-11.297v-13.516h5.8828v-13.898h15.59c2.4805-0.003906 4.5 2.0156 4.5 4.4961z"/>
  <path d="m30.102-52.484v12.754h-15.59c-2.4805 0-4.4961-2.0195-4.4961-4.4961v-5.2578h11.648l3-2.9961z"/>
  <path d="m30.102-80.379v13.422h-5.4414l-3-3h-11.648v-5.9258c0-2.4805 2.0195-4.4961 4.4961-4.4961z"/>
  <path d="m24.215-59.48v6.7656l-2.7461 2.75h-11.453v-9.5156z"/>
  <path d="m24.215-66.477v6.5156h-14.199v-9.5156h11.453l2.7461 2.75z"/>
  <path d="m39.492 3.8867l-1.6875-0.56641-7.0312 1.3203-1.5312 1.1641 0.9375 4.832-2.793 0.11328-1.6797 2.7031-4.0039 0.96094 0.011719 1.9688 13.184 10.086 2.25 0.19141 7.4961-5.8594-0.75-0.94531-1.4102-0.1875-0.84375-1.418v-5.8594l-0.5625-0.56641 0.09375-1.5117-1.5-1.5117-0.1875-1.6055 0.65625-0.47266-0.28125-1.7031z"/>
  <path d="m28.898 5.8711h-4.7812l-0.93359 2.0781-2.1562 1.0391-1.7773 4.8203-3.4688 2.0781-4.8711 8.0312 4.7812-0.09375 0.1875-2.3594h1.2148v-3.2148h4.2188l0.09375-4.1562 4.0312-0.94531 1.6875-2.7422 2.625-0.097656z"/>
  <path d="m10.938 24.254l0.90234 1.1797-0.1875 5.1016 1.3125-0.94141 0.93359-0.19141 1.3125 0.47266 1.5 2.0781 1.4062-0.94141 6.8438-0.097657-1.6914-11.434 1.8125-0.007813-3.3789-2.5898 0.003906 1.6797-4.2773 0.003906-0.019532 3.2109-1.2305-0.003906-0.15625 2.3672z"/>
  <path d="m13.098 29.91l-1.6328 1.1836-0.37109 0.66016-0.11328 0.66406 0.60156 0.42969 2.0039-0.027344 1.2891-0.34766 0.14453 0.63281-0.11719 0.83594 1.2305 0.60547 0.25781 0.28906 1.6328 0.058593 0.058593-0.72266-1.4883-1.7891-1.6602-2.25-1.0312-0.42969z"/>
  <path d="m11.762 33.23l-0.054688 0.46094 2.8672-0.042968 0.14453-0.42578-0.0625-0.43359-0.82422 0.33594z"/>
  <path d="m11.719 34.012l0.51562 1.2461 0.28516-0.76953 3.4805 0.36328-1.5078-0.77344z"/>
  <path d="m12.469 35.797l0.57812 1.1445 1.6289-1.4023 0.015625-0.42969-1.918-0.27734z"/>
  <path d="m13.223 37.207l1.2578 1.9375 1.6406-1.4219 1.6797-0.074218 1.3984 1.8594 1.1875 0.78125 0.44922-0.87109 0.39844-0.22266-0.027344-1.9141-0.78906-2.2695-2.4258 0.26953-3-0.23828-0.015626 0.76953z"/>
  <path d="m14.676 39.355l2.3398 2.2617 1.668-2.0273-1.043-1.6367-1.4375 0.14453z"/>
  <path d="m17.258 41.867l4.5469 3.0391-0.10547-2.3047-1.375-1.6172-1.3398-1.1875z"/>
  <path d="m22.184 44.996l1.7695-1.2539 2.2031-0.38672 2.2461 0.48438-1.1484-1.7344-0.33594-1.0586 0.33594-3.1367-2.0078 0.09375-0.91016-0.87109-1.9141 0.050782-0.91016 0.14453 0.097656 2.1211-0.48047 0.19531-0.57422 1.0586 1.4844 1.7344z"/>
  <path d="m16.965 32.195l1.2734-0.875 7.0859-0.042968-1.6406-11.406 1.8711-0.054688 9.0547 6.9141 1.2188 0.17578-0.46094 3.8438-5.6914 0.51562-4.3945 3.2812-0.80078 2.2422-3.0508 0.12891-0.77734-2.2383-2.3398 0.16406 0.089844-0.73438z"/>
  <path d="m29.852 31.551l1.5078-0.12109 2.4727 3.4961-2.293 1.7305-1.6602-0.42969-2.2305 0.027344-0.35938 1.3086-1.8711 0.089844-0.51562-0.69922 0.66406-2.1289z"/>
  <path d="m34.117 34.746l1.0547-0.023438 0.95312-1.4297 1.5977-0.28516 1.6992 1.0391 3.6328 0.10547 2.8086-1.1445 1.0547-0.90625 0.078125-1.1914 1.957-1.9766 0.51953-4.3633-1.2891-2.6992-3.2969-0.80469-7.625 5.9492-1.0781-0.10547-0.46484 4.1289-3.8906 0.39063z"/>
  <path d="m27.266 40.98l0.46484 1.0898 1.207 1.8984 0.67188-0.023438 1.8281-1.0391-0.12891-5.918-1.4141-0.41406-1.9805 0.054687z"/>
  <path d="m31.77 42.719l1.1094-0.64844-0.023437-4.2852-0.72266-1.168-0.46484 0.39062z"/>
  <path d="m33.211 41.992h0.87891l0.050781-2.4922 1.1094-1.6133-0.050781-2.8047-1.0078-0.023437-1.7266 1.3516 0.71875 1.375z"/>
  <path d="m34.398 41.941l1.6211 0.078125 1.9609 2.1836 0.95312 0.25781 0.74609-0.36328 1.1367-0.15625 0.38281-1.582 1.5469-1.0156 1.6719-0.078125 3.0625-5.6367-0.050781-1.2695-1.4141-1.0898-2.832 1.2461-3.7852-0.054687-1.8047-1.1445-1.2891 0.28516-0.67188 1.168-0.050781 3.2969-1.082 1.5312z"/>
  <path d="m39.922 3.8203l2.2891-0.92187 0.75391 0.48828 0.027344 0.59766-0.35156 0.46094 0.054687 0.81641 0.35156 0.19141v1.4648l-0.40625 0.67969 0.054687 0.43359 1.5352 0.54297-1.2383 1.9258-0.48438-0.027344-0.082031 1.5508-0.53906 0.082031-0.46094-0.40625 0.10547-1.5742-1.5078-1.4648-0.19141-1.2734 0.72656-0.57031z"/>
  <path d="m42.047 12.395l0.64453-0.10547 0.19141-1.4922h0.32422l1.3203-2.1719 3.2578 0.94922 0.89062 1.3828 3.2031 1.4648 1.668-0.70312-0.16016-0.70312-0.72656-0.70312 0.082032-0.48828 1.1836-1.0039h2.3438l0.89062 1.1914 1.8828 0.27344 0.24219 15.277-1.3984-0.054688-8.4531-4.3984-0.91406 0.51953-3.4727-0.87109-0.94141-1.2461-1.375-0.19141-0.69922-1.2461z"/>
  <path d="m59.383 10.336l1.1055 0.027343 2.1523 0.59766 1.0195 0.027343 1.2656-1.0586h0.59375l1.0742 0.59766h1.3633l0.24219-0.015625 0.85938 2.4766 0.24219 0.79688 0.23047 1.1953-0.40625 0.29688-0.69922-0.35156-0.80859-2.6367-0.72656-0.054687-0.054687 0.89453 0.48437 1.5469 3.8789 4.8047 0.085937 2.0625-1.1289 1.3047-10.613-0.12109z"/>
  <path d="m47.32 32.262l0.054688-1.2227 1.9648-1.9102 0.52344-4.6875-1.3086-2.5 0.91406-0.46875 8.8594 4.6172-0.054687 4.5312-1.5625 1.3281v2.3359l1.0195 1.9805h-1.8047l-2.9883 2.957-0.078125 0.89453-2.207-0.027344-0.027344 0.40234-1.2617-0.16406-0.85938-1.6289-0.64453-0.31641 0.082031-0.49609 0.8125-0.62109v-2.9062l-1.1211-0.17578-1.3516-1.0078z"/>
  <path d="m58.648 30.785l0.074218-4.9023 1.0195 0.027344-0.11719-2.7227 10.68 0.09375 1.5273-1.5391 3.2969 5.2734-1.8047 2.1289v3.25l-2.8398 6.1094-0.97656 0.42969 0.30859 1.7031h1.2188l1.6523 2.3984-1.3242 0.16797-0.33984 0.61719-0.03125 0.89063-3.9727-0.070313-0.40625-0.61719-2.7773-0.15625-5.0977-5.25 0.50781-0.30859 0.13672-1.2344-1.2188-0.72266-1.1133-2.1992 0.0625-2.0469z"/>
  <path d="m41.125 43.977l1.332 1.2266-0.09375 1.8984 7.3086-0.16797 0.59766-0.67188-2.0938-2.2578-0.30859-0.81641 1.332-2.4961-0.90625-1.6562-0.76172-0.41016v-0.83984l0.88281-0.57422 0.050782-2.6172-0.69922-0.078125-0.011719 1.375-3.0742 5.7383-1.8789 0.09375-1.2891 0.88672z"/>
  <path d="m73.781 31.723l-0.10547-2.4375 1.6406-1.9141 0.44141 0.33984 0.80859 2.7031 3.8711 2.8867-0.70312 0.86719-2.8359-2.4414h-3.1172z"/>
  <path d="m79.895 34.559l-0.23438 1.3906 1.6367-0.027344 0.027344-2.0469-0.60156-0.36719z"/>
  <path d="m70.793 38.789l3.0156-6.7109 2.9922 0.015625 2.6562 2.3047-0.1875 1.9023h2.0625l0.21094 1.1445 3.3281 1.9922 2.0547 0.10156-3.9062 4.1953-5.3594 1.6523h-1.3281l-2.3672-2.0195-0.9375-0.39453-1.8125-2.6719-1.1953 0.015625-0.14062-1.2266z"/>
  <path d="m81.66 36.008l1.6914 1.1523 0.5-0.023437 4.1953-1.4414 0.47656 1.5391-0.33203 1.293-0.90625 0.72266-2.2656-0.14453-3.2383-1.9922z"/>
  <path d="m88.379 35.598l1.8086-0.69531 0.64453 0.38672-0.066406 1.6055-1.6719 4.7539-9.0273 9.6758-1.0508-0.72266-0.070313-4.082 1.3594-1.5625 2.8828-0.89062 4.2305-4.4648 1.1016-0.98828 0.3125-1.4414z"/>
  <path d="m48.508 43.879l1.9297 2.0859 0.76172-0.98438 1.2109 0.050781 0.26562-0.96094 1.1914-0.74609 2.4766 1.707 1.4297-1.418 5.543 0.24219-5.1406-5.3086 0.6875-0.42969 0.097657-0.9375-1.168-0.55078h-1.7188l-2.7617 2.7383-0.09375 1.125-2.1875-0.070313-0.070312 0.48047-1.4297-0.14453-1.2891 2.4492z"/>
  <path d="m38.191 49.305l0.47656-0.24219 0.35547 0.28906-0.35547 0.55078-0.42969-0.17188z"/>
  <path d="m39.148 47.793l0.71484-0.11719 0.23828 0.45703-0.35547 0.38672-0.35547-0.050781z"/>
  <path d="m40.719 45.27l-0.19141 0.81641 0.57031 0.30859 0.54688-0.41016-0.19141-0.83984z"/>
  <path d="m44.672 47.434l-0.050781 1.0312-2.3359-0.050782-1.4297 2.7656 3.3594 3.6758 0.83203-0.69531-0.023437-0.72266-0.57031-0.26562v-0.50391l1.2891-0.81641 1.1406 0.86719 1.2617 0.023438-0.023437-4.3438-2-0.097657-0.023438-0.91016z"/>
  <path d="m42.434 47.457l-0.023438 0.57422 1.8789 0.097656-0.023437-0.64844z"/>
  <path d="m46.578 47.387l-0.023437 0.60156 1.9805 0.046875 0.070313 5.1406-1.8086-0.046875-1.0469-0.81641-0.8125 0.45703-0.035156 0.23047 0.41797 0.19922 0.12109 1.0586-1.1172 0.96094 0.23828 0.50391 1.2383-0.96094h0.59766l0.1875 0.57422 0.78516 0.33594 2.5234-2.1367-0.050781-1.5625 0.52734-1.2695 1.6211-1.1992 0.43359-4.0625-1.1484 0.003906-1.3359 1.8281z"/>
  <path d="m44.738 55.969l0.71875 0.93359 0.93359-0.88281-0.27344-0.91406-0.23438-0.015625z"/>
  <path d="m45.91 56.992l4.2695-0.074219 0.86328 1.2305-0.03125 0.90625 0.32031 0.28906h2.1172l0.60938-1.1953h0.86719l0.35156 0.35547 1.1875-0.03125 0.35156 4.1758 2.0508 0.066406v0.32031l5.5195 2.4883 0.25781 0.48437h1.1523l-0.12891-1.7461-2.0859-1.0039 0.12891-1.3242 0.89844-2.1055 2.0547-0.066406-1.7656-5.8555 0.03125-2.4883 2.793-4.3672 0.03125-0.61328-0.41797-0.22656 0.015624-1.1836-0.50781-0.046875-0.51172-0.65234-8.4258-0.38281-1.5469 1.5039-2.5273-1.6641-0.89062 0.54688-0.64453 5.4375-1.5977 1.2344-0.48047 1.0938 0.085938 1.6172-2.8828 2.3555-0.76562-0.34766 0.10547 0.44922z"/>
  <path d="m65.965 50.445l1.1641 1.0742-0.050781 1.1445-1.8047 0.039063v-1.2695z"/>
  <path d="m65.297 53.059l1.7656-0.035156-0.45703 1.5508-0.44922 0.39062h-0.54688l-0.39062-1.0469z"/>
  <path d="m66.16 50.109l1.2578 1.1758 0.78516-0.5 2.1289-0.34766 0.36328 0.035156 0.13672-0.80859 1.2031-2.5273-1.0117-2.1016-3.2734 0.019532-0.023438 0.86719 0.4375 0.42188-0.066406 0.86328z"/>
  <path d="m71.348 44.902l1.1055 2.1484-1.3203 2.7695-0.17187 0.83984 6.5938 4.0781 2.0469-3.2148-1.0352-0.84375-0.019531-4.2344 1.293-1.418-2.0625 0.6875-1.5625 0.019531-2.4414-2.0625-0.76953-0.33203-1.4297 0.13281-0.25391 0.42188z"/>
  <path d="m71.242 63.496l7.2305-0.88672-1.6289-3.1445-0.085938-3.0156 0.52734-1.4414-6.8789-4.3242-2.1562 0.35547-0.75 0.55469-0.0625 1.2656-0.48438 1.75-0.50781 0.60547-0.72266 0.0625 1.3906 4.8086 2.2656 1.0625 1.5586 0.046874z"/>
  <path d="m56.328 69l1.3125 1.8203 2.0312 0.125 0.71875 0.39453 2.1289 0.023437 1.8359-2.5742 5.1211-2.293 0.44922-2.0195-0.59766-2.8984-2.6758-1.5234-1.7812 0.12109-0.89453 1.9727 0.027344 0.89844 2.1016 1.0234 0.12891 2.2266-1.8125 0.097656-0.44531-0.75-5.0273-2.1445-0.14844 1.6484-2.375 0.074218z"/>
  <path d="m45.594 57.406l1.4102 5.2734-0.03125 1.6641-2.0664 2.2188-0.3125 3.6055 7.9492 0.070312 2.5859 0.9375 2.1328-0.27734-1.2422-1.5586 0.003907-4.4492 2.4453-0.10156v-1.7344l-1.9805-0.082032-0.39844-4.1094-0.83594 0.011719-0.44922-0.40625-0.49219 0.023438-0.65234 1.2695h-2.5195l-0.58594-0.58984 0.17578-0.83203-0.6875-1.0078z"/>
  <path d="m69.828 66.805l1.2891 1.3477-0.027344 1.7227 0.24609 0.72656 1.7109-1.8477-0.19922-2.3516-0.91406-0.69922-0.81641-4.1211-1.4141-0.050781 0.64453 2.9727z"/>
  <path d="m67.348 80.84l1.1133 0.92188 2.625-1.5977 0.42578-2.375v-3.918l4.207-3.4453 0.72266 0.023438 2.5508-2.4492-0.39453-5.043-6.7617 0.85547 0.20312 1.5234 1.1641 0.89844 0.26953 2.7461-2.2773 2.2266-0.54687-1.2461 0.097656-1.6484-1.3125-1.4258-3.2227 1.5 2.9961 1.5234 0.10156 4.4453-1.9844 2.9453z"/>
  <path d="m60.516 72.148l3.7148 4.1953 2.8477 0.72656 1.9102-2.9922-0.14844-3.9688-3.0977-1.6016-1.1641 0.52734-1.7344 2.6445-2.3984-0.023438z"/>
  <path d="m48.879 84.434l1.3867 0.10156 0.81641 0.82422 1.9297 0.019531 0.47656-5.4883v-3.5977l1.2344-0.24609 0.47266-3.7695 3.1445-0.10156 1.1133-0.92188-1.8828-0.074218-2.5508 0.34766-2.75-1h-7.7266l0.19531 2.1953 2.5742 3.793-0.44531 1.9453 0.023437 1.0234z"/>
  <path d="m53.828 79.988l0.88672 0.27344-0.12109 2.5469 0.91406 0.125 2.1055-1.8984 2.5273 0.27344 0.67188-1.6992 3.1953-2.918-3.8398-4.418-0.050781-0.72656-0.42578-0.125-1.1641 1.0742-3.0234 0.074218-0.42188 3.7695-1.1875 0.27344z"/>
  <path d="m67.227 81.137l-1.0391 0.17578-0.44922 1.2227 0.79297 0.72656h0.96484l0.81641-1.1719z"/>
  <path d="m61.652 85.852l1.2617-0.97266 0.59766 0.027344 0.72266 0.89844-0.074219 0.89844-1.2148 0.44922v0.34766l-1.3398-0.074219-0.32031-0.97656z"/>
  <path d="m64.445 76.844l-3.2695 3.0234-0.77734 1.8672-2.5938-0.32031-2.1562 1.918-1.4336-0.14062 0.11328-2.6523-0.50781-0.17578-0.35547 5.4219-2.543-0.023437-0.76562-0.90234-1.1211-0.011719 1.0234 2.9375 1.8242 1.7266-1.3047 1.5195 0.84375 1.9062 1.9531 0.74219 1.5586-1.3242 4.457 0.027343 0.31641-0.39844 1.9805-0.34766 6.6953-6.6641-0.023437-2.1016-0.71875 0.92969h-1.0742l-1.3047-1.0938 0.66016-1.6484 1.1406-0.23047-0.10547-3.3867zm-1.5664 7.6602l0.62109-0.027344 1.0156 1.1016-0.027344 1.2773-1.1875 0.60156-0.074219 0.42578-1.8125 0.019532-0.56641-1.3672 0.51953-1z"/>
  <path d="m97.09 74.918l-0.62891 0.82422 0.12109 0.89062 1.3242-1.0781z"/>
  <path d="m94.758 76.316l-0.94141 0.0625-0.0625 0.82031 0.62891 0.12891 0.94141-0.44141z"/>
  <path d="m88.516 64.121l-0.87891 2.0938-1.5117 2.668-2.6445 0.1875-1.1367 1.3359 0.19141 4.0664-1.6367 1.9062 0.19141 3.2383 1.3867 1.5859 1.6406-0.19141 1.6406-1.207-0.375-1.9023 3.7773-6.5469-0.75781-0.82422 0.75781-1.5859 0.82031 0.25391 0.25391-0.63281-0.75781-3.2383-0.44141-1.332z"/>
  <path d="m82.469 63.422l0.19141 0.63281 0.82031 0.13281 0.3125-0.82812z"/>
  <path d="m83.664 64.691l0.3125 0.70312h0.50781l0.25391-0.89062z"/>
  <path d="m92.676 58.082l-0.25 0.50781 0.6875 0.57422 0.50781-0.57422z"/>
  <path d="m96.207 54.27l-0.75781 0.50781 0.56641 0.89062h0.75781z"/>
  <path d="m96.52 56.496l-0.50391 0.57031 0.375 0.57422 0.69141 0.12891 0.0625-1.2109z"/>
  <path d="m15.375 14.754l-0.72656 0.41797 0.33594 0.33984z"/>
  <path d="m12.855 14.832l-0.89844 0.23047 0.44531 0.67969h0.67578z"/>
  <path d="m10.723 14.156l-0.5625 0.56641 0.78516 0.67969 0.44531-1.0195z"/>
  <path d="m3.7578 30l-0.78516 0.45312 0.5625 0.44922 0.67578-0.33984z"/>
  <path d="m5.6914 30.91l-0.51562 0.45703 0.36328 0.67578 0.87891-0.39453z"/>
  <path d="m4.5703 32.191l-0.65625 0.39453 0.70703 0.94922 0.55859-0.29688z"/>
 </g>
</svg>
